<svg  class="c-icon" width="66" height="66" viewBox="0 0 66 66" fill="none" xmlns="http://www.w3.org/2000/svg">
<path d="M33 63.25C17.7182 59.8537 5.5 45.4355 5.5 30.25V13.75L33 2.75L60.5 13.75V30.25C60.5 45.441 48.2818 59.8537 33 63.25ZM11 16.5V30.25C11.1572 36.6084 13.3935 42.7401 17.3667 47.7066C21.34 52.6732 26.8312 56.2009 33 57.75C39.1688 56.2009 44.66 52.6732 48.6333 47.7066C52.6065 42.7401 54.8428 36.6084 55 30.25V16.5L33 8.25L11 16.5Z" fill="white"/>
<path d="M33 30.25C36.797 30.25 39.875 27.172 39.875 23.375C39.875 19.578 36.797 16.5 33 16.5C29.203 16.5 26.125 19.578 26.125 23.375C26.125 27.172 29.203 30.25 33 30.25Z" fill="white"/>
<path d="M19.25 41.25C20.6054 43.7201 22.5929 45.7856 25.0089 47.2352C27.4249 48.6848 30.1827 49.4664 33 49.5C35.8173 49.4664 38.5751 48.6848 40.9911 47.2352C43.4071 45.7856 45.3946 43.7201 46.75 41.25C46.6812 36.036 37.5595 33 33 33C28.4157 33 19.3188 36.036 19.25 41.25Z" fill="white"/>
</svg>
