<svg width="66" height="66" viewBox="0 0 66 66" fill="none" xmlns="http://www.w3.org/2000/svg">
<path d="M13.75 57.75C12.2375 57.75 10.9432 57.2119 9.867 56.1358C8.79083 55.0596 8.25183 53.7643 8.25 52.25V13.75C8.25 12.2375 8.789 10.9432 9.867 9.867C10.945 8.79083 12.2393 8.25183 13.75 8.25H52.25C53.7625 8.25 55.0578 8.789 56.1358 9.867C57.2138 10.945 57.7518 12.2393 57.75 13.75V52.25C57.75 53.7625 57.2119 55.0578 56.1358 56.1358C55.0596 57.2138 53.7643 57.7518 52.25 57.75H13.75ZM13.75 52.25H52.25V13.75H13.75V52.25ZM16.5 46.75H49.5L39.1875 33L30.9375 44L24.75 35.75L16.5 46.75Z" fill="white"/>
</svg>
