<svg width="67" height="74" viewBox="0 0 67 74" fill="none" xmlns="http://www.w3.org/2000/svg">
<path d="M28.8654 15.1247C29.2389 14.2015 29.8796 13.4108 30.7054 12.8541C31.5312 12.2974 32.5045 12 33.5004 12C34.4963 12 35.4695 12.2974 36.2953 12.8541C37.1211 13.4108 37.7618 14.2015 38.1354 15.1247C41.8323 16.1414 45.0932 18.3436 47.4173 21.393C49.7414 24.4425 51.0002 28.1705 51.0004 32.0047V43.7472L55.5804 50.6172C55.8316 50.9937 55.9758 51.4313 55.9978 51.8834C56.0198 52.3355 55.9186 52.785 55.7051 53.1841C55.4915 53.5832 55.1737 53.9168 54.7854 54.1494C54.3971 54.3819 53.953 54.5048 53.5004 54.5047H42.1629C41.8619 56.5874 40.8205 58.492 39.2296 59.8695C37.6387 61.247 35.6048 62.0053 33.5004 62.0053C31.396 62.0053 29.362 61.247 27.7711 59.8695C26.1802 58.492 25.1389 56.5874 24.8379 54.5047H13.5004C13.0478 54.5048 12.6036 54.3819 12.2154 54.1494C11.8271 53.9168 11.5092 53.5832 11.2957 53.1841C11.0822 52.785 10.981 52.3355 11.0029 51.8834C11.0249 51.4313 11.1692 50.9937 11.4204 50.6172L16.0004 43.7472V32.0047C16.0004 23.9447 21.4504 17.1547 28.8654 15.1247ZM29.9654 54.5047C30.2236 55.2363 30.7023 55.8698 31.3357 56.318C31.969 56.7661 32.7258 57.0067 33.5016 57.0067C34.2775 57.0067 35.0342 56.7661 35.6676 56.318C36.3009 55.8698 36.7797 55.2363 37.0379 54.5047H29.9654ZM33.5004 19.5047C30.1852 19.5047 27.0057 20.8217 24.6615 23.1659C22.3173 25.5101 21.0004 28.6895 21.0004 32.0047V44.5047C21.0005 44.9985 20.8543 45.4813 20.5804 45.8922L18.1729 49.5047H48.8254L46.4179 45.8922C46.1448 45.481 45.9995 44.9983 46.0004 44.5047V32.0047C46.0004 28.6895 44.6834 25.5101 42.3392 23.1659C39.995 20.8217 36.8156 19.5047 33.5004 19.5047Z" fill="white"/>
</svg>
