<svg width="68" height="61" viewBox="0 0 68 61" fill="none" xmlns="http://www.w3.org/2000/svg">
<g clip-path="url(#clip0_817_1875)">
<path d="M33 13.1133C45.0816 13.1133 54.875 22.8993 54.875 34.9716C54.875 47.044 45.0816 56.83 33 56.83C20.9184 56.83 11.125 47.044 11.125 34.9716C11.125 22.8993 20.9184 13.1133 33 13.1133ZM33 17.4849C28.3587 17.4849 23.9075 19.3273 20.6256 22.6067C17.3437 25.8861 15.5 30.3339 15.5 34.9716C15.5 39.6094 17.3437 44.0572 20.6256 47.3366C23.9075 50.6159 28.3587 52.4583 33 52.4583C37.6413 52.4583 42.0925 50.6159 45.3744 47.3366C48.6563 44.0572 50.5 39.6094 50.5 34.9716C50.5 30.3339 48.6563 25.8861 45.3744 22.6067C42.0925 19.3273 37.6413 17.4849 33 17.4849ZM33 43.7149C33.5802 43.7149 34.1366 43.9452 34.5468 44.3552C34.957 44.7651 35.1875 45.3211 35.1875 45.9008C35.1875 46.4805 34.957 47.0365 34.5468 47.4464C34.1366 47.8563 33.5802 48.0866 33 48.0866C32.4198 48.0866 31.8634 47.8563 31.4532 47.4464C31.043 47.0365 30.8125 46.4805 30.8125 45.9008C30.8125 45.3211 31.043 44.7651 31.4532 44.3552C31.8634 43.9452 32.4198 43.7149 33 43.7149ZM33 22.9495C34.8425 22.9496 36.6274 23.5908 38.0483 24.7629C39.4691 25.935 40.4371 27.565 40.786 29.3728C41.1349 31.1805 40.8429 33.0533 39.9602 34.6693C39.0774 36.2854 37.6591 37.5438 35.9487 38.2285C35.6967 38.3241 35.4689 38.4741 35.2816 38.6679C35.1853 38.7772 35.17 38.917 35.1722 39.0613L35.1875 39.3433C35.1869 39.9004 34.9734 40.4363 34.5906 40.8414C34.2079 41.2465 33.6848 41.4903 33.1282 41.5229C32.5716 41.5556 32.0235 41.3746 31.596 41.0171C31.1684 40.6595 30.8937 40.1522 30.8278 39.599L30.8125 39.3433V38.7968C30.8125 36.2766 32.8469 34.764 34.3213 34.1716C34.9213 33.9322 35.4448 33.5339 35.8354 33.0196C36.226 32.5054 36.4691 31.8945 36.5385 31.2525C36.6079 30.6106 36.501 29.962 36.2292 29.3762C35.9575 28.7904 35.5312 28.2897 34.9962 27.9277C34.4611 27.5658 33.8375 27.3563 33.1923 27.3218C32.5471 27.2873 31.9046 27.429 31.334 27.7319C30.7633 28.0347 30.286 28.4871 29.9532 29.0405C29.6205 29.594 29.4449 30.2275 29.4453 30.8732C29.4453 31.4529 29.2148 32.0089 28.8046 32.4188C28.3944 32.8287 27.838 33.059 27.2578 33.059C26.6777 33.059 26.1213 32.8287 25.711 32.4188C25.3008 32.0089 25.0703 31.4529 25.0703 30.8732C25.0703 28.7717 25.9058 26.7563 27.3929 25.2703C28.88 23.7843 30.8969 22.9495 33 22.9495Z" fill="white"/>
<rect x="20.9688" y="6.55859" width="24.0625" height="4.37167" rx="2.18583" fill="white"/>
<rect width="12.2037" height="4.37437" rx="2.18718" transform="matrix(0.435259 0.900305 -0.900565 0.434721 54.7559 17.4199)" fill="white"/>
</g>
<defs>
<clipPath id="clip0_817_1875">
<rect width="68" height="61" fill="white"/>
</clipPath>
</defs>
</svg>
