<svg width="67" height="66" viewBox="0 0 67 66" fill="none" xmlns="http://www.w3.org/2000/svg">
<path d="M30.8174 55.3962L30.819 55.3971C31.6579 55.8678 32.5528 56.1042 33.5 56.1042C34.4472 56.1042 35.3421 55.8678 36.181 55.3971L36.1826 55.3962L51.6472 46.5708C51.6475 46.5707 51.6477 46.5705 51.6479 46.5704C52.4853 46.0992 53.1446 45.4563 53.6213 44.6438L53.6216 44.6434C54.0958 43.8312 54.3333 42.9498 54.3333 42.0036V24.3542C54.3333 23.41 54.0958 22.5286 53.6217 21.7146L53.6216 21.7144C53.1468 20.9015 52.4873 20.2585 51.6477 19.7873C51.6475 19.7871 51.6472 19.787 51.647 19.7869L36.1825 10.9646L36.1814 10.964C35.3425 10.4911 34.4474 10.2536 33.5 10.2536C32.5526 10.2536 31.6575 10.4911 30.8186 10.964L30.8175 10.9646L15.3528 19.787C15.3525 19.7871 15.3523 19.7873 15.352 19.7874C14.5147 20.2586 13.8554 20.9015 13.3787 21.7139L13.3783 21.7146C12.9042 22.5286 12.6667 23.41 12.6667 24.3542V42.0036C12.6667 42.9498 12.9042 43.8312 13.3784 44.6434C13.8531 45.4563 14.5126 46.0993 15.3522 46.5705C15.3525 46.5706 15.3527 46.5708 15.353 46.5709L30.8174 55.3962ZM4.75 17.4444V17.6944H5H8.16667H8.41667V17.4444V10.0244C8.41667 9.52694 8.57687 9.13501 8.88971 8.82767C9.20288 8.51999 9.60399 8.36111 10.1142 8.36111H17.6667H17.9167V8.11111V5V4.75H17.6667H10.1142C8.63311 4.75 7.36339 5.2645 6.31946 6.29011L6.31927 6.2903C5.27544 7.31799 4.75 8.56736 4.75 10.0244V17.4444ZM17.6667 61.25H17.9167V61V57.8889V57.6389H17.6667H10.1142C9.60399 57.6389 9.20288 57.48 8.88971 57.1723C8.57687 56.865 8.41667 56.4731 8.41667 55.9756V48.5556V48.3056H8.16667H5H4.75V48.5556V55.9756C4.75 57.4346 5.27537 58.6841 6.31946 59.7099L6.31965 59.7101C7.36554 60.7354 8.63512 61.25 10.1142 61.25H17.6667ZM49.0833 61V61.25H49.3333H56.8858C58.3669 61.25 59.6366 60.7355 60.6805 59.7099L60.6807 59.7097C61.7246 58.682 62.25 57.4326 62.25 55.9756V48.5556V48.3056H62H58.8333H58.5833V48.5556V55.9756C58.5833 56.4731 58.4231 56.865 58.1103 57.1723C57.7971 57.48 57.396 57.6389 56.8858 57.6389H49.3333H49.0833V57.8889V61ZM58.5833 17.4444V17.6944H58.8333H62H62.25V17.4444V10.0244C62.25 8.56539 61.7246 7.31588 60.6805 6.29011L60.6804 6.28992C59.6345 5.26456 58.3649 4.75 56.8858 4.75H49.3333H49.0833V5V8.11111V8.36111H49.3333H56.8858C57.396 8.36111 57.7971 8.51999 58.1103 8.82767C58.4231 9.13501 58.5833 9.52694 58.5833 10.0244V17.4444ZM34.3438 14.1881L34.3437 14.1883L34.3521 14.1931L48.7885 22.3696L33.5 31.0481L18.2115 22.3696L32.6479 14.1931L32.648 14.1933L32.6562 14.1881C32.9489 14.0071 33.229 13.9238 33.5 13.9238C33.771 13.9238 34.0511 14.0071 34.3438 14.1881ZM16.3333 25.5892L31.6667 34.1578V51.7202L17.1834 43.4034C16.8909 43.2225 16.6812 43.0126 16.5432 42.7769C16.4026 42.5346 16.3333 42.2782 16.3333 42.0036V25.5892ZM49.8137 43.4032L35.3333 51.7201V34.1578L50.6667 25.5892V42.0036C50.6667 42.2782 50.5974 42.5347 50.4567 42.7771C50.3189 43.0124 50.1084 43.2222 49.8137 43.4032Z" fill="white" stroke="white" stroke-width="0.5"/>
</svg>
