<svg width="68" height="68" viewBox="0 0 68 68" fill="none" xmlns="http://www.w3.org/2000/svg">
<path d="M38.1176 44.1861C38.0177 44.0873 37.8829 44.0318 37.7424 44.0318C37.6019 44.0318 37.467 44.0873 37.3672 44.1861L29.6508 51.9025C26.0781 55.4752 20.0484 55.8537 16.1039 51.9025C12.1527 47.9514 12.5313 41.9283 16.1039 38.3557L23.8203 30.6393C24.0262 30.4334 24.0262 30.0947 23.8203 29.8889L21.1773 27.2459C21.0775 27.147 20.9427 27.0916 20.8021 27.0916C20.6616 27.0916 20.5268 27.147 20.427 27.2459L12.7105 34.9623C7.09258 40.5803 7.09258 49.6713 12.7105 55.2826C18.3285 60.8939 27.4195 60.9006 33.0309 55.2826L40.7473 47.5662C40.9531 47.3603 40.9531 47.0217 40.7473 46.8158L38.1176 44.1861ZM55.2902 12.7096C49.6723 7.0916 40.5812 7.0916 34.9699 12.7096L27.2469 20.426C27.148 20.5258 27.0925 20.6607 27.0925 20.8012C27.0925 20.9417 27.148 21.0765 27.2469 21.1764L29.8832 23.8127C30.0891 24.0186 30.4277 24.0186 30.6336 23.8127L38.35 16.0963C41.9227 12.5236 47.9523 12.1451 51.8969 16.0963C55.848 20.0475 55.4695 26.0705 51.8969 29.6432L44.1805 37.3596C44.0816 37.4594 44.0261 37.5943 44.0261 37.7348C44.0261 37.8753 44.0816 38.0101 44.1805 38.11L46.8234 40.7529C47.0293 40.9588 47.368 40.9588 47.5738 40.7529L55.2902 33.0365C60.9016 27.4186 60.9016 18.3275 55.2902 12.7096ZM40.5148 24.7225C40.415 24.6236 40.2802 24.5681 40.1397 24.5681C39.9991 24.5681 39.8643 24.6236 39.7645 24.7225L24.7234 39.7568C24.6246 39.8567 24.5691 39.9915 24.5691 40.132C24.5691 40.2725 24.6246 40.4074 24.7234 40.5072L27.3531 43.1369C27.559 43.3428 27.8977 43.3428 28.1035 43.1369L43.1379 28.1025C43.3437 27.8967 43.3437 27.558 43.1379 27.3521L40.5148 24.7225Z" fill="white"/>
</svg>
