<svg width="70" height="70" viewBox="0 0 70 70" fill="none" xmlns="http://www.w3.org/2000/svg">
<path d="M46.6667 55.4173H58.3333C60.0833 55.4173 61.25 54.2506 61.25 52.5006V49.584C61.25 47.2633 60.3281 45.0377 58.6872 43.3968C57.0462 41.7559 54.8206 40.834 52.5 40.834H46.6667M40.25 29.1673C41.439 30.4501 42.9852 31.3472 44.689 31.7427C46.3928 32.1381 48.176 32.0139 49.8085 31.386C51.441 30.7582 52.8479 29.6554 53.8475 28.2201C54.8472 26.7849 55.3937 25.0829 55.4167 23.334C55.3937 21.585 54.8472 19.8831 53.8475 18.4478C52.8479 17.0126 51.441 15.9098 49.8085 15.2819C48.176 14.654 46.3928 14.5298 44.689 14.9253C42.9852 15.3208 41.439 16.2178 40.25 17.5007M8.75 52.5006V49.584C8.75 47.2633 9.67187 45.0377 11.3128 43.3968C12.9538 41.7559 15.1794 40.834 17.5 40.834H29.1667C31.4873 40.834 33.7129 41.7559 35.3539 43.3968C36.9948 45.0377 37.9167 47.2633 37.9167 49.584V52.5006C37.9167 54.2506 36.75 55.4173 35 55.4173H11.6667C10.8931 55.4173 10.1513 55.11 9.60427 54.563C9.05729 54.0161 8.75 53.2742 8.75 52.5006ZM32.0833 23.334C32.0833 25.6546 31.1615 27.8802 29.5205 29.5212C27.8796 31.1621 25.654 32.084 23.3333 32.084C21.0127 32.084 18.7871 31.1621 17.1461 29.5212C15.5052 27.8802 14.5833 25.6546 14.5833 23.334C14.5833 21.0133 15.5052 18.7877 17.1461 17.1468C18.7871 15.5059 21.0127 14.584 23.3333 14.584C25.654 14.584 27.8796 15.5059 29.5205 17.1468C31.1615 18.7877 32.0833 21.0133 32.0833 23.334Z" stroke="white" stroke-width="4" stroke-linecap="round"/>
</svg>
